<?xml version="1.0" encoding="UTF-8"?>
<svg version="1.1" xmlns="http://www.w3.org/2000/svg" width="561" height="445">
<path d="M0 0 C7.41302201 1.61960496 14.88679118 2.66759 22.40234375 3.69506836 C23.61656006 3.86200195 24.83077637 4.02893555 26.08178711 4.20092773 C38.39326461 5.85003628 50.41123907 6.70490933 62.83984375 6.69506836 C63.54704559 6.69645813 64.25424744 6.6978479 64.98287964 6.69927979 C73.19107898 6.70738505 81.25789161 6.50541323 89.40234375 5.38256836 C104.94442571 3.31226083 122.57459814 5.07689556 137.33984375 10.50756836 C139.01171875 12.01147461 139.01171875 12.01147461 140.33984375 13.50756836 C143.46586376 15.35111862 146.90443584 16.51404925 150.28149414 17.81713867 C165.27543842 23.67845225 165.27543842 23.67845225 170.33984375 29.50756836 C170.33984375 30.49756836 170.33984375 31.48756836 170.33984375 32.50756836 C166.68034833 32.14161882 163.85350253 31.35981692 160.65234375 29.62475586 C141.31116538 19.75029541 116.49726259 19.21088152 95.33984375 21.50756836 C94.18669678 21.6300293 93.0335498 21.75249023 91.84545898 21.87866211 C81.88625303 22.99660472 72.18357307 24.85293441 62.40234375 27.00756836 C60.96172476 27.31939628 59.52096958 27.63059566 58.08007812 27.94116211 C52.41372118 29.16600136 46.75346689 30.41115785 41.10546875 31.71850586 C36.97591967 32.58382631 33.54478898 32.65010888 29.33984375 32.50756836 C26.02019884 32.50756836 24.26689821 32.69280458 21.234375 33.64428711 C20.02418701 34.01239502 20.02418701 34.01239502 18.78955078 34.38793945 C17.4841333 34.78746826 17.4841333 34.78746826 16.15234375 35.19506836 C7.82793434 37.65800743 -0.52452259 39.6718977 -9.03515625 41.38256836 C-10.08598389 41.59743896 -11.13681152 41.81230957 -12.21948242 42.03369141 C-17.46013253 43.05713368 -22.3205948 43.76326567 -27.66015625 43.50756836 C-27.46808594 44.04768555 -27.27601563 44.58780273 -27.078125 45.14428711 C-26.53546932 48.21257388 -27.1742359 50.31180211 -27.97265625 53.32006836 C-29.54504211 59.63820063 -30.42139839 65.83579465 -31.1328125 72.29272461 C-31.66015625 75.50756836 -31.66015625 75.50756836 -33.66015625 79.50756836 C-37.29015625 79.50756836 -40.92015625 79.50756836 -44.66015625 79.50756836 C-47.27593441 74.27601204 -46.28094215 72.91018802 -44.66015625 67.50756836 C-46.31015625 67.50756836 -47.96015625 67.50756836 -49.66015625 67.50756836 C-49.73363281 68.55557617 -49.73363281 68.55557617 -49.80859375 69.62475586 C-49.88335937 70.53483398 -49.958125 71.44491211 -50.03515625 72.38256836 C-50.10476562 73.28749023 -50.174375 74.19241211 -50.24609375 75.12475586 C-50.66015625 77.50756836 -50.66015625 77.50756836 -52.66015625 79.50756836 C-54.97265625 79.73803711 -54.97265625 79.73803711 -57.66015625 79.69506836 C-58.99046875 79.68540039 -58.99046875 79.68540039 -60.34765625 79.67553711 C-62.66015625 79.50756836 -62.66015625 79.50756836 -64.66015625 78.50756836 C-64.33015625 76.19756836 -64.00015625 73.88756836 -63.66015625 71.50756836 C-64.32402344 71.7847168 -64.98789063 72.06186523 -65.671875 72.34741211 C-66.99638672 72.89075195 -66.99638672 72.89075195 -68.34765625 73.44506836 C-69.65283203 73.98454102 -69.65283203 73.98454102 -70.984375 74.53491211 C-83.21600183 78.9811531 -98.88044112 77.52240339 -110.66015625 72.50756836 C-120.48528311 67.06088729 -126.49504724 60.37387843 -129.66015625 49.50756836 C-131.06508805 41.98621628 -127.89571666 35.02059187 -123.91015625 28.75756836 C-114.11671543 18.96412754 -102.23290979 14.30392061 -88.53515625 14.25756836 C-81.44066121 14.26090757 -75.23113367 14.59358367 -68.66015625 17.50756836 C-67.76554687 17.88268555 -66.8709375 18.25780273 -65.94921875 18.64428711 C-61.18009346 20.81020791 -57.70712342 22.39015043 -55.66015625 27.50756836 C-60.1076857 27.07366305 -62.9607584 25.77808563 -66.76171875 23.49584961 C-76.34204528 18.50856028 -88.74252067 19.65067484 -98.76953125 22.47241211 C-105.98757628 25.05725256 -112.24818569 28.79655949 -116.6015625 35.23413086 C-119.17377509 40.75821841 -119.00208795 46.42178502 -118.03515625 52.32006836 C-114.83668042 59.73471688 -109.19538448 64.57379743 -101.84765625 67.70678711 C-88.45251695 72.3852365 -76.83280671 71.24380223 -63.66015625 66.50756836 C-62.34015625 59.24756836 -61.02015625 51.98756836 -59.66015625 44.50756836 C-61.97015625 44.54881836 -64.28015625 44.59006836 -66.66015625 44.63256836 C-72.3058291 44.68257864 -77.27723325 44.2652575 -82.66015625 42.50756836 C-82.66015625 41.51756836 -82.66015625 40.52756836 -82.66015625 39.50756836 C-81.76522461 39.46269287 -80.87029297 39.41781738 -79.94824219 39.37158203 C-46.72203237 37.65908868 -16.57099223 32.09501109 15.33984375 22.50756836 C17.32805682 21.91359011 19.31633695 21.31983624 21.3046875 20.72631836 C25.98521843 19.32712591 30.66324913 17.91985855 35.33984375 16.50756836 C32.41172658 15.5315293 29.91137708 15.15877877 26.8515625 14.82397461 C25.75827637 14.7019165 24.66499023 14.5798584 23.53857422 14.45410156 C22.37986816 14.32737061 21.22116211 14.20063965 20.02734375 14.07006836 C10.77131552 13.03320479 1.5456295 11.9302807 -7.66015625 10.50756836 C-7.66015625 11.16756836 -7.66015625 11.82756836 -7.66015625 12.50756836 C-8.39314941 12.45221924 -9.12614258 12.39687012 -9.88134766 12.33984375 C-41.7332698 9.90316852 -41.7332698 9.90316852 -73.66015625 9.50756836 C-74.81773437 9.51272461 -75.9753125 9.51788086 -77.16796875 9.52319336 C-96.05060874 10.10419767 -115.33174039 15.99191168 -130.90625 26.74975586 C-133.66015625 28.50756836 -133.66015625 28.50756836 -136.66015625 28.50756836 C-136.51678477 23.77630954 -134.2299548 21.44589567 -130.96875 18.34741211 C-126.55197571 14.82744478 -121.5863374 12.23713365 -116.66015625 9.50756836 C-113.41165648 7.7853034 -113.41165648 7.7853034 -112.66015625 4.50756836 C-110.32819642 3.17154971 -108.1163577 2.06581008 -105.66015625 1.00756836 C-104.94972168 0.69932129 -104.23928711 0.39107422 -103.50732422 0.07348633 C-72.41875114 -12.71727978 -31.89033832 -7.06533528 0 0 Z M-87.66015625 1.50756836 C-87.66015625 1.83756836 -87.66015625 2.16756836 -87.66015625 2.50756836 C-85.68015625 2.50756836 -83.70015625 2.50756836 -81.66015625 2.50756836 C-81.66015625 2.17756836 -81.66015625 1.84756836 -81.66015625 1.50756836 C-83.64015625 1.50756836 -85.62015625 1.50756836 -87.66015625 1.50756836 Z M-61.66015625 1.50756836 C-57.66015625 2.50756836 -57.66015625 2.50756836 -57.66015625 2.50756836 Z M-101.66015625 3.50756836 C-97.66015625 4.50756836 -97.66015625 4.50756836 -97.66015625 4.50756836 Z M101.33984375 11.50756836 C101.33984375 11.83756836 101.33984375 12.16756836 101.33984375 12.50756836 C109.25984375 12.50756836 117.17984375 12.50756836 125.33984375 12.50756836 C125.33984375 12.17756836 125.33984375 11.84756836 125.33984375 11.50756836 C117.41984375 11.50756836 109.49984375 11.50756836 101.33984375 11.50756836 Z M126.33984375 12.50756836 C126.33984375 12.83756836 126.33984375 13.16756836 126.33984375 13.50756836 C127.98984375 13.50756836 129.63984375 13.50756836 131.33984375 13.50756836 C131.33984375 13.17756836 131.33984375 12.84756836 131.33984375 12.50756836 C129.68984375 12.50756836 128.03984375 12.50756836 126.33984375 12.50756836 Z M-46.66015625 49.50756836 C-46.99015625 52.14756836 -47.32015625 54.78756836 -47.66015625 57.50756836 C-46.01015625 57.50756836 -44.36015625 57.50756836 -42.66015625 57.50756836 C-42.33015625 54.86756836 -42.00015625 52.22756836 -41.66015625 49.50756836 C-43.31015625 49.50756836 -44.96015625 49.50756836 -46.66015625 49.50756836 Z " fill="#101111" transform="translate(219.66015625,213.492431640625)"/>
<path d="M0 0 C0.83724609 0.72123047 0.83724609 0.72123047 1.69140625 1.45703125 C1.69140625 2.11703125 1.69140625 2.77703125 1.69140625 3.45703125 C-5.32657415 2.90392532 -11.54064951 1.35975701 -18.24609375 -0.73046875 C-31.14819142 -4.60129768 -44.11866866 -7.81376089 -57.30859375 -10.54296875 C-58.48164063 -10.78853516 -59.6546875 -11.03410156 -60.86328125 -11.28710938 C-75.43153104 -14.25558608 -89.5912408 -16.01211689 -104.43359375 -16.04296875 C-105.74279785 -16.04925293 -107.05200195 -16.05553711 -108.40087891 -16.06201172 C-120.8621096 -15.89667528 -132.80992553 -13.5420809 -143.30859375 -6.54296875 C-144.62859375 -6.54296875 -145.94859375 -6.54296875 -147.30859375 -6.54296875 C-146.79411745 -11.04463637 -145.55470871 -13.37414224 -142.30859375 -16.54296875 C-105.72416553 -41.58776797 -34.07622048 -22.7751389 0 0 Z " fill="#151515" transform="translate(350.30859375,204.54296875)"/>
<path d="M0 0 C0.89460938 0.37511719 1.78921875 0.75023437 2.7109375 1.13671875 C7.48006279 3.30263955 10.95303283 4.88258207 13 10 C8.55247055 9.56609469 5.69939785 8.27051727 1.8984375 5.98828125 C-7.68188903 1.00099193 -20.08236442 2.14310648 -30.109375 4.96484375 C-37.32742003 7.5496842 -43.58802944 11.28899113 -47.94140625 17.7265625 C-50.51361884 23.25065005 -50.3419317 28.91421666 -49.375 34.8125 C-46.17652417 42.22714852 -40.53522823 47.06622907 -33.1875 50.19921875 C-20.60492697 54.59386742 -8.60448966 53.94330403 4 50 C4.99 52.475 4.99 52.475 6 55 C5.43152344 55.12117188 4.86304688 55.24234375 4.27734375 55.3671875 C3.11912109 55.61855469 3.11912109 55.61855469 1.9375 55.875 C1.18339844 56.03742188 0.42929688 56.19984375 -0.34765625 56.3671875 C-3.12428843 56.99449476 -3.12428843 56.99449476 -6.2734375 58.046875 C-18.8221815 61.25640701 -33.61229513 59.64982834 -44.91015625 53.38671875 C-53.26463239 47.8375748 -58.1702503 41.71496957 -61 32 C-62.4049318 24.47864792 -59.23556041 17.51302351 -55.25 11.25 C-41.33677539 -2.66322461 -18.40035923 -8.15987662 0 0 Z " fill="#34B5AB" transform="translate(151,231)"/>
<path d="M0 0 C1.65 0.66 3.3 1.32 5 2 C5 2.66 5 3.32 5 4 C6.09957031 4.35191406 7.19914062 4.70382813 8.33203125 5.06640625 C18.0252349 8.26710627 27.61066428 11.61066428 35 19 C35 19.99 35 20.98 35 22 C31.34050458 21.63405046 28.51365878 20.85224856 25.3125 19.1171875 C5.97132163 9.24272705 -18.84258116 8.70331316 -40 11 C-41.72972046 11.18369141 -41.72972046 11.18369141 -43.49438477 11.37109375 C-53.45359072 12.48903636 -63.15627068 14.34536605 -72.9375 16.5 C-74.37811899 16.81182792 -75.81887417 17.1230273 -77.25976562 17.43359375 C-82.92120677 18.65740557 -88.57645982 19.90115121 -94.21875 21.2109375 C-98.32812031 22.06847139 -101.82108185 22.15196066 -106 22 C-106.33 21.01 -106.66 20.02 -107 19 C-104.1679225 18.03781983 -101.33443873 17.0801792 -98.5 16.125 C-97.70851563 15.85558594 -96.91703125 15.58617187 -96.1015625 15.30859375 C-91.11006114 13.63112198 -86.15684218 12.08384957 -81 11 C-80.34 11.33 -79.68 11.66 -79 12 C-79 11.34 -79 10.68 -79 10 C-72.7488607 7.72589687 -66.91022073 5.76673079 -60.26171875 5.27734375 C-57.64161242 4.95605265 -55.27652476 4.26196778 -52.75 3.5 C-40.95318366 0.14265911 -28.3531612 0.86921873 -16.1875 0.9375 C-14.6087254 0.94253053 -13.02994922 0.94709066 -11.45117188 0.95117188 C-7.6340748 0.96204184 -3.81705545 0.97921864 0 1 C0 0.67 0 0.34 0 0 Z M-9 2 C-9 2.33 -9 2.66 -9 3 C-7.35 3 -5.7 3 -4 3 C-4 2.67 -4 2.34 -4 2 C-5.65 2 -7.3 2 -9 2 Z " fill="#54C3BD" transform="translate(355,224)"/>
<path d="M0 0 C1.20970459 0.00523682 2.41940918 0.01047363 3.66577148 0.01586914 C4.97094727 0.0190918 6.27612305 0.02231445 7.62084961 0.02563477 C9.00952213 0.03399138 10.39819401 0.04245634 11.78686523 0.05102539 C13.17944179 0.05603873 14.57202005 0.06060193 15.96459961 0.06469727 C19.38456394 0.07653105 22.80444367 0.09301659 26.22436523 0.11352539 C26.43550918 6.9968179 25.69232079 13.24517409 24.34936523 19.98852539 C24.1753418 20.92438477 24.00131836 21.86024414 23.82202148 22.82446289 C22.48362625 29.72463386 22.48362625 29.72463386 20.22436523 33.11352539 C17.65795898 33.44165039 17.65795898 33.44165039 14.66186523 33.36352539 C13.67057617 33.34805664 12.67928711 33.33258789 11.65795898 33.31665039 C9.22436523 33.11352539 9.22436523 33.11352539 8.22436523 32.11352539 C7.9870771 25.58810166 7.9870771 25.58810166 9.22436523 23.11352539 C7.57436523 23.11352539 5.92436523 23.11352539 4.22436523 23.11352539 C4.10061523 24.39227539 3.97686523 25.67102539 3.84936523 26.98852539 C3.47436523 30.86352539 3.47436523 30.86352539 1.22436523 33.11352539 C-1.08813477 33.41430664 -1.08813477 33.41430664 -3.77563477 33.42602539 C-4.66250977 33.4427832 -5.54938477 33.45954102 -6.46313477 33.47680664 C-7.22625977 33.35692383 -7.98938477 33.23704102 -8.77563477 33.11352539 C-11.15206026 29.54888715 -10.87842348 28.82622577 -10.20141602 24.74633789 C-10.02803711 23.69575195 -9.8546582 22.64516602 -9.67602539 21.56274414 C-9.48202148 20.46575195 -9.28801758 19.36875977 -9.08813477 18.23852539 C-8.9134668 17.14926758 -8.73879883 16.06000977 -8.55883789 14.93774414 C-6.05052313 0.2474706 -6.05052313 0.2474706 0 0 Z M7.22436523 8.11352539 C6.89436523 10.42352539 6.56436523 12.73352539 6.22436523 15.11352539 C7.87436523 14.78352539 9.52436523 14.45352539 11.22436523 14.11352539 C11.55436523 12.13352539 11.88436523 10.15352539 12.22436523 8.11352539 C10.57436523 8.11352539 8.92436523 8.11352539 7.22436523 8.11352539 Z " fill="#111111" transform="translate(298.775634765625,259.886474609375)"/>
<path d="M0 0 C-0.66 0.66 -1.32 1.32 -2 2 C-0.02 2.66 1.96 3.32 4 4 C4 3.34 4 2.68 4 2 C9.445 2.495 9.445 2.495 15 3 C15 2.34 15 1.68 15 1 C18.4374823 0.97098606 21.87493312 0.95319665 25.3125 0.9375 C26.77719727 0.92493164 26.77719727 0.92493164 28.27148438 0.91210938 C29.20927734 0.90888672 30.14707031 0.90566406 31.11328125 0.90234375 C31.97735596 0.89710693 32.84143066 0.89187012 33.73168945 0.88647461 C36 1 36 1 39 2 C41.03834781 2.20327014 43.081015 2.36470076 45.125 2.5 C59.60227273 3.53409091 59.60227273 3.53409091 64 5 C65.43487228 5.15222614 66.8731569 5.27339931 68.3125 5.375 C74.99570795 5.97896398 81.46903376 7.50371235 88 9 C88.33 10.32 88.66 11.64 89 13 C87.90051025 12.91697632 87.90051025 12.91697632 86.77880859 12.83227539 C54.92688645 10.39560016 54.92688645 10.39560016 23 10 C21.84242188 10.00515625 20.68484375 10.0103125 19.4921875 10.015625 C0.60954751 10.59662931 -18.67158414 16.48434332 -34.24609375 27.2421875 C-37 29 -37 29 -40 29 C-39.85662852 24.26874118 -37.56979855 21.93832731 -34.30859375 18.83984375 C-29.89181946 15.31987642 -24.92618115 12.72956529 -20 10 C-16.75150023 8.27773504 -16.75150023 8.27773504 -16 5 C-13.1640625 3.359375 -13.1640625 3.359375 -9.625 1.75 C-8.46226563 1.20859375 -7.29953125 0.6671875 -6.1015625 0.109375 C-3 -1 -3 -1 0 0 Z M-5 4 C-1 5 -1 5 -1 5 Z " fill="#449A95" transform="translate(123,213)"/>
<path d="M0 0 C0.89847656 0.00257813 1.79695312 0.00515625 2.72265625 0.0078125 C3.61855469 0.00523437 4.51445312 0.00265625 5.4375 0 C7.78515625 0.1328125 7.78515625 0.1328125 9.78515625 1.1328125 C10.41015625 3.6953125 10.41015625 3.6953125 10.78515625 6.1328125 C11.77515625 4.1528125 12.76515625 2.1728125 13.78515625 0.1328125 C15.24338837 0.1058082 16.701763 0.08641463 18.16015625 0.0703125 C18.97226563 0.05871094 19.784375 0.04710937 20.62109375 0.03515625 C22.78515625 0.1328125 22.78515625 0.1328125 24.78515625 1.1328125 C24.07252556 8.18565234 23.03875145 15.14564437 21.84765625 22.1328125 C21.67814453 23.18082031 21.50863281 24.22882813 21.33398438 25.30859375 C21.16447266 26.30246094 20.99496094 27.29632813 20.8203125 28.3203125 C20.66957275 29.22136719 20.51883301 30.12242187 20.36352539 31.05078125 C20.17266357 31.73785156 19.98180176 32.42492187 19.78515625 33.1328125 C17.3074053 34.37168798 15.54861918 34.30022919 12.78515625 34.3203125 C11.89828125 34.33449219 11.01140625 34.34867187 10.09765625 34.36328125 C7.78515625 34.1328125 7.78515625 34.1328125 5.78515625 32.1328125 C5.16015625 30.0078125 5.16015625 30.0078125 4.78515625 28.1328125 C4.66140625 28.9371875 4.53765625 29.7415625 4.41015625 30.5703125 C4.20390625 31.4159375 3.99765625 32.2615625 3.78515625 33.1328125 C1.40549505 34.3226431 -0.1297011 34.26631216 -2.77734375 34.2578125 C-3.98583984 34.26167969 -3.98583984 34.26167969 -5.21875 34.265625 C-7.21484375 34.1328125 -7.21484375 34.1328125 -8.21484375 33.1328125 C-8.67720587 26.06287539 -7.27871314 19.58175888 -5.77734375 12.6953125 C-5.54724609 11.59509766 -5.31714844 10.49488281 -5.08007812 9.36132812 C-3.12516439 0.18739963 -3.12516439 0.18739963 0 0 Z " fill="#0D0D0D" transform="translate(232.21484375,258.8671875)"/>
<path d="M0 0 C1.3303125 0.02126953 1.3303125 0.02126953 2.6875 0.04296875 C4.0178125 0.05263672 4.0178125 0.05263672 5.375 0.0625 C7.6875 0.23046875 7.6875 0.23046875 9.6875 1.23046875 C10.3125 3.29296875 10.3125 3.29296875 10.6875 5.23046875 C10.996875 4.40546875 11.30625 3.58046875 11.625 2.73046875 C13.6875 0.23046875 13.6875 0.23046875 15.85546875 -0.13671875 C18.17344258 -0.1440891 20.39133062 -0.08971423 22.6875 0.23046875 C23.6875 1.23046875 23.6875 1.23046875 23.8671875 5.078125 C23.80233866 10.72332818 22.855266 16.13243434 21.8125 21.66796875 C21.55146484 23.15586914 21.55146484 23.15586914 21.28515625 24.67382812 C21.02412109 26.09211914 21.02412109 26.09211914 20.7578125 27.5390625 C20.60070801 28.39298584 20.44360352 29.24690918 20.28173828 30.12670898 C19.6875 32.23046875 19.6875 32.23046875 17.6875 34.23046875 C15.375 34.4609375 15.375 34.4609375 12.6875 34.41796875 C11.3571875 34.40830078 11.3571875 34.40830078 10 34.3984375 C7.6875 34.23046875 7.6875 34.23046875 5.6875 33.23046875 C5.6875 31.58046875 5.6875 29.93046875 5.6875 28.23046875 C5.0275 28.23046875 4.3675 28.23046875 3.6875 28.23046875 C3.543125 29.03484375 3.39875 29.83921875 3.25 30.66796875 C2.6875 33.23046875 2.6875 33.23046875 1.6875 34.23046875 C0.19011876 34.32837445 -1.31192892 34.36021739 -2.8125 34.35546875 C-3.6271875 34.35804688 -4.441875 34.360625 -5.28125 34.36328125 C-7.3125 34.23046875 -7.3125 34.23046875 -8.3125 33.23046875 C-8.7340912 26.67747513 -7.52526616 20.36356184 -6.4375 13.91796875 C-6.26347656 12.82162109 -6.08945312 11.72527344 -5.91015625 10.59570312 C-5.73613281 9.55091797 -5.56210937 8.50613281 -5.3828125 7.4296875 C-5.22570801 6.47924561 -5.06860352 5.52880371 -4.90673828 4.54956055 C-4.10240882 1.41056071 -3.28105352 0.32699689 0 0 Z " fill="#121212" transform="translate(384.3125,258.76953125)"/>
<path d="M0 0 C1.76150391 0.03383789 1.76150391 0.03383789 3.55859375 0.06835938 C6.45701637 0.1272704 9.35286427 0.20948369 12.25 0.3125 C12.875 2.625 12.875 2.625 13.25 5.3125 C12.59 6.3025 11.93 7.2925 11.25 8.3125 C7.9921875 8.82421875 7.9921875 8.82421875 4.125 9 C2.20300781 9.09861328 2.20300781 9.09861328 0.2421875 9.19921875 C-0.74523437 9.23660156 -1.73265625 9.27398437 -2.75 9.3125 C-3.41 11.2925 -4.07 13.2725 -4.75 15.3125 C-0.79 15.3125 3.17 15.3125 7.25 15.3125 C7.29241723 17.64544775 7.29092937 19.97952567 7.25 22.3125 C6.92 22.6425 6.59 22.9725 6.25 23.3125 C6.91 23.6425 7.57 23.9725 8.25 24.3125 C8.375 27.6875 8.375 27.6875 8.25 31.3125 C5.20896434 34.35353566 2.20158914 33.60580847 -1.95507812 33.63476562 C-3.02177734 33.63154297 -4.08847656 33.62832031 -5.1875 33.625 C-6.25033203 33.64111328 -7.31316406 33.65722656 -8.40820312 33.67382812 C-9.93670898 33.67479492 -9.93670898 33.67479492 -11.49609375 33.67578125 C-12.43122803 33.67876221 -13.3663623 33.68174316 -14.32983398 33.68481445 C-16.75 33.3125 -16.75 33.3125 -18.56933594 31.95947266 C-21.33486032 28.10169195 -19.3048264 21.75597813 -18.75 17.3125 C-18.62367188 16.20777344 -18.49734375 15.10304688 -18.3671875 13.96484375 C-16.61204199 1.08845803 -12.5205651 -0.45263444 0 0 Z " fill="#070708" transform="translate(211.75,259.6875)"/>
<path d="M0 0 C1.65322266 0.01740234 1.65322266 0.01740234 3.33984375 0.03515625 C4.99693359 0.04869141 4.99693359 0.04869141 6.6875 0.0625 C7.54214844 0.07410156 8.39679688 0.08570313 9.27734375 0.09765625 C10.4092991 3.49352229 10.12981245 5.07980152 9.53515625 8.5703125 C9.35597656 9.63443359 9.17679687 10.69855469 8.9921875 11.79492188 C8.79753906 12.90544922 8.60289062 14.01597656 8.40234375 15.16015625 C8.21542969 16.27455078 8.02851563 17.38894531 7.8359375 18.53710938 C6.42116575 26.81001224 6.42116575 26.81001224 5.27734375 29.09765625 C10.22734375 29.09765625 15.17734375 29.09765625 20.27734375 29.09765625 C21.4828232 33.91957406 21.4828232 33.91957406 20.27734375 37.09765625 C16.16549462 39.15358081 10.85900087 38.32674633 6.33984375 38.34765625 C4.67405273 38.37859375 4.67405273 38.37859375 2.97460938 38.41015625 C1.91048828 38.4153125 0.84636719 38.42046875 -0.25 38.42578125 C-1.71554321 38.4397998 -1.71554321 38.4397998 -3.21069336 38.45410156 C-5.72265625 38.09765625 -5.72265625 38.09765625 -7.55126953 36.72705078 C-10.36158751 32.81790901 -8.39872696 26.62006151 -7.72265625 22.09765625 C-4.09930564 0.14703392 -4.09930564 0.14703392 0 0 Z " fill="#0F0F0F" transform="translate(333.72265625,254.90234375)"/>
<path d="M0 0 C9.24 0 18.48 0 28 0 C28 2.31 28 4.62 28 7 C27 8 27 8 23.4375 8.0625 C22.303125 8.041875 21.16875 8.02125 20 8 C19.87882812 8.81082031 19.75765625 9.62164062 19.6328125 10.45703125 C19.10065841 13.97334172 18.55329503 17.48695554 18 21 C17.83242188 22.08152344 17.66484375 23.16304688 17.4921875 24.27734375 C17.32976562 25.25832031 17.16734375 26.23929687 17 27.25 C16.7834375 28.58804687 16.7834375 28.58804687 16.5625 29.953125 C16.376875 30.62859375 16.19125 31.3040625 16 32 C13.51245214 33.24377393 11.77344699 33.13306235 9 33.125 C8.113125 33.12757813 7.22625 33.13015625 6.3125 33.1328125 C4 33 4 33 2 32 C2.47458158 28.56185066 2.95545262 25.1246099 3.4375 21.6875 C3.57220703 20.71103516 3.70691406 19.73457031 3.84570312 18.72851562 C4.04389648 17.32182617 4.04389648 17.32182617 4.24609375 15.88671875 C4.36654053 15.02264404 4.4869873 14.15856934 4.61108398 13.26831055 C5 11 5 11 6 8 C4.5459375 8.0309375 4.5459375 8.0309375 3.0625 8.0625 C0 8 0 8 -1 7 C-0.67 4.69 -0.34 2.38 0 0 Z " fill="#151515" transform="translate(261,260)"/>
<path d="M0 0 C2.8203125 -0.29296875 2.8203125 -0.29296875 6.125 -0.1875 C7.76855469 -0.14689453 7.76855469 -0.14689453 9.4453125 -0.10546875 C10.28835938 -0.07066406 11.13140625 -0.03585937 12 0 C13.67029846 5.01089539 11.98555621 9.9678368 11.04907227 15.0793457 C10.68852168 17.05689629 10.34449448 19.03683828 10.00195312 21.01757812 C9.66647461 22.8825293 9.66647461 22.8825293 9.32421875 24.78515625 C9.11885498 25.92863525 8.91349121 27.07211426 8.7019043 28.25024414 C8 31 8 31 6 33 C3.3984375 33.1953125 3.3984375 33.1953125 0.375 33.125 C-0.62789063 33.10695313 -1.63078125 33.08890625 -2.6640625 33.0703125 C-3.82035156 33.03550781 -3.82035156 33.03550781 -5 33 C-5.99225442 29.10843959 -5.92467243 26.10270542 -5.29296875 22.1484375 C-5.11830078 21.05015625 -4.94363281 19.951875 -4.76367188 18.8203125 C-4.57353516 17.68335938 -4.38339844 16.54640625 -4.1875 15.375 C-4.00896484 14.2303125 -3.83042969 13.085625 -3.64648438 11.90625 C-2.25846025 3.38769037 -2.25846025 3.38769037 0 0 Z " fill="#121212" transform="translate(364,260)"/>
<path d="M0 0 C0.33 0 0.66 0 1 0 C1.226875 1.03125 1.45375 2.0625 1.6875 3.125 C3.43227104 9.13476692 7.67265598 13.40916099 12.8125 16.83203125 C25.5172608 23.61546603 39.32137815 23.52118883 52.90234375 19.65625 C53.59457031 19.4396875 54.28679687 19.223125 55 19 C55.99 21.475 55.99 21.475 57 24 C56.43152344 24.12117188 55.86304688 24.24234375 55.27734375 24.3671875 C54.50519531 24.53476562 53.73304688 24.70234375 52.9375 24.875 C52.18339844 25.03742188 51.42929688 25.19984375 50.65234375 25.3671875 C47.87571157 25.99449476 47.87571157 25.99449476 44.7265625 27.046875 C32.1778185 30.25640701 17.38770487 28.64982834 6.08984375 22.38671875 C-0.33234649 18.12102243 -5.56348457 13.53104768 -8 6 C-7.01 5.67 -6.02 5.34 -5 5 C-5 6.32 -5 7.64 -5 9 C-3.68 9.33 -2.36 9.66 -1 10 C0.16148326 6.51555023 -0.38107997 4.55879018 -1 1 C-0.67 0.67 -0.34 0.34 0 0 Z " fill="#2CB8AF" transform="translate(100,262)"/>
<path d="M0 0 C-0.66 0.66 -1.32 1.32 -2 2 C-0.02 2.66 1.96 3.32 4 4 C4 3.34 4 2.68 4 2 C6.31 2.33 8.62 2.66 11 3 C10.67 3.66 10.34 4.32 10 5 C7.93359375 5.4140625 7.93359375 5.4140625 5.4375 5.625 C4.61121094 5.69976562 3.78492188 5.77453125 2.93359375 5.8515625 C1.97646484 5.92503906 1.97646484 5.92503906 1 6 C1 6.66 1 7.32 1 8 C0.01 8.33 -0.98 8.66 -2 9 C0.475 9.495 0.475 9.495 3 10 C3 10.66 3 11.32 3 12 C1.741875 12.3403125 0.48375 12.680625 -0.8125 13.03125 C-12.7350864 16.36634555 -25.2963624 20.04840498 -35.25 27.73828125 C-37 29 -37 29 -40 29 C-39.85662852 24.26874118 -37.56979855 21.93832731 -34.30859375 18.83984375 C-29.89181946 15.31987642 -24.92618115 12.72956529 -20 10 C-16.75150023 8.27773504 -16.75150023 8.27773504 -16 5 C-13.1640625 3.359375 -13.1640625 3.359375 -9.625 1.75 C-8.46226563 1.20859375 -7.29953125 0.6671875 -6.1015625 0.109375 C-3 -1 -3 -1 0 0 Z M-5 4 C-1 5 -1 5 -1 5 Z " fill="#32B0A6" transform="translate(123,213)"/>
<path d="M0 0 C1.31677734 -0.00386719 2.63355469 -0.00773438 3.99023438 -0.01171875 C5.24255859 -0.01042969 6.49488281 -0.00914062 7.78515625 -0.0078125 C8.91961182 -0.00668457 10.05406738 -0.00555664 11.22290039 -0.00439453 C13.9375 0.125 13.9375 0.125 15.9375 1.125 C15.9375 1.785 15.9375 2.445 15.9375 3.125 C16.52015625 3.06699219 17.1028125 3.00898438 17.703125 2.94921875 C28.53596716 2.35307178 37.03477492 6.92818354 45.390625 13.4765625 C46.9375 15.125 46.9375 15.125 46.9375 18.125 C43.29947299 17.7611973 40.51126763 16.99897707 37.34375 15.25 C32.70652829 12.87155403 27.98143482 11.60692878 22.9375 10.375 C22.06738281 10.15457031 21.19726562 9.93414062 20.30078125 9.70703125 C18.18175189 9.1714524 16.05990457 8.64704306 13.9375 8.125 C13.9375 7.465 13.9375 6.805 13.9375 6.125 C4.93644035 4.91081024 -4.0932668 4.81310534 -13.16137695 4.64819336 C-15.24199314 4.60865052 -17.32203969 4.55715757 -19.40234375 4.50390625 C-20.63331787 4.4788501 -21.86429199 4.45379395 -23.13256836 4.42797852 C-26.0625 4.125 -26.0625 4.125 -28.0625 2.125 C-20.30551753 -1.75349123 -8.4231416 -0.02540918 0 0 Z " fill="#14B1A4" transform="translate(343.0625,227.875)"/>
<path d="M0 0 C1.76150391 0.03383789 1.76150391 0.03383789 3.55859375 0.06835938 C6.45701637 0.1272704 9.35286427 0.20948369 12.25 0.3125 C12.875 2.625 12.875 2.625 13.25 5.3125 C12.59 6.3025 11.93 7.2925 11.25 8.3125 C7.9921875 8.82421875 7.9921875 8.82421875 4.125 9 C2.20300781 9.09861328 2.20300781 9.09861328 0.2421875 9.19921875 C-0.74523437 9.23660156 -1.73265625 9.27398437 -2.75 9.3125 C-3.41 11.2925 -4.07 13.2725 -4.75 15.3125 C-5.36875 15.126875 -5.9875 14.94125 -6.625 14.75 C-8.79160178 14.07563824 -8.79160178 14.07563824 -10.75 15.3125 C-10.75 14.6525 -10.75 13.9925 -10.75 13.3125 C-13.23587357 13.64394981 -14.42459316 13.92511091 -16.0625 15.875 C-17.0986671 19.54868337 -16.37521647 22.56120119 -15.75 26.3125 C-17.73 27.3025 -17.73 27.3025 -19.75 28.3125 C-19.31528555 22.50105418 -18.7467072 16.70936729 -17.9375 10.9375 C-17.80730469 9.98101562 -17.67710937 9.02453125 -17.54296875 8.0390625 C-14.78706273 -1.43690991 -8.59052127 -0.31055833 0 0 Z " fill="#0F0F0F" transform="translate(211.75,259.6875)"/>
<path d="M0 0 C0.91289795 0.00193359 1.8257959 0.00386719 2.76635742 0.00585938 C9.07018616 0.04627933 15.30570703 0.30443699 21.5625 1.125 C21.5625 1.455 21.5625 1.785 21.5625 2.125 C11.1675 3.115 11.1675 3.115 0.5625 4.125 C1.0575 5.61 1.0575 5.61 1.5625 7.125 C2.17738281 7.10179687 2.79226562 7.07859375 3.42578125 7.0546875 C4.23402344 7.03664062 5.04226562 7.01859375 5.875 7 C6.67550781 6.97679687 7.47601563 6.95359375 8.30078125 6.9296875 C10.5625 7.125 10.5625 7.125 13.5625 9.125 C12.30373047 9.01671875 12.30373047 9.01671875 11.01953125 8.90625 C-12.48536511 6.70219321 -12.48536511 6.70219321 -35.60546875 9.75 C-36.21003906 9.87375 -36.81460938 9.9975 -37.4375 10.125 C-39.1875 8.6875 -39.1875 8.6875 -40.4375 7.125 C-39.4475 6.795 -38.4575 6.465 -37.4375 6.125 C-37.4375 5.465 -37.4375 4.805 -37.4375 4.125 C-34.81331903 3.64095734 -32.18828403 3.16270502 -29.5625 2.6875 C-28.47195312 2.48543945 -28.47195312 2.48543945 -27.359375 2.27929688 C-18.23785466 0.63902348 -9.26402857 -0.04784521 0 0 Z " fill="#0C0F10" transform="translate(160.4375,206.875)"/>
<path d="M0 0 C0.89460938 0.37511719 1.78921875 0.75023437 2.7109375 1.13671875 C7.48006279 3.30263955 10.95303283 4.88258207 13 10 C8.54926717 9.56578216 5.69283865 8.27077516 1.89208984 5.98071289 C-4.66997905 2.57944441 -12.11785093 2.78442999 -19.3125 3 C-21.05834138 3.05116019 -22.80448037 3.09317675 -24.55078125 3.125 C-25.31044189 3.14820313 -26.07010254 3.17140625 -26.8527832 3.1953125 C-29.29804679 2.97288943 -30.88715946 2.21743712 -33 1 C-33 0.01 -33 -0.98 -33 -2 C-22.88960607 -4.83511468 -9.56356737 -4.2410873 0 0 Z " fill="#4CBEB5" transform="translate(151,231)"/>
<path d="M0 0 C1.65 0.66 3.3 1.32 5 2 C5 2.66 5 3.32 5 4 C6.98 4.66 8.96 5.32 11 6 C11 6.33 11 6.66 11 7 C8.69 7 6.38 7 4 7 C4 6.34 4 5.68 4 5 C-1.3599115 3.84365025 -6.39648814 3.995835 -11.83203125 4.234375 C-12.78204514 4.27306702 -13.73205902 4.31175903 -14.71086121 4.35162354 C-16.72233868 4.43588575 -18.73367794 4.52350543 -20.74487305 4.61425781 C-23.76378709 4.74784446 -26.78301617 4.86282547 -29.80273438 4.9765625 C-40.18568142 5.40797831 -50.21389834 6.26544124 -60.4128418 8.29003906 C-67.44837518 9.68249337 -67.44837518 9.68249337 -71 10 C-71.66 9.34 -72.32 8.68 -73 8 C-69.58332145 6.68589287 -66.44020541 5.8756832 -62.8125 5.5625 C-59.28755359 5.23884048 -56.13824117 4.5209111 -52.75 3.5 C-40.95300926 0.14292331 -28.35327524 0.86921809 -16.1875 0.9375 C-14.6087254 0.94253053 -13.02994922 0.94709066 -11.45117188 0.95117188 C-7.6340748 0.96204184 -3.81705545 0.97921864 0 1 C0 0.67 0 0.34 0 0 Z M-9 2 C-9 2.33 -9 2.66 -9 3 C-7.35 3 -5.7 3 -4 3 C-4 2.67 -4 2.34 -4 2 C-5.65 2 -7.3 2 -9 2 Z " fill="#63B0AB" transform="translate(355,224)"/>
<path d="M0 0 C-0.14404122 2.27094771 -0.29034286 4.54175207 -0.4375 6.8125 C-0.48116699 7.49159424 -0.52483398 8.17068848 -0.56982422 8.87036133 C-0.89834182 13.83845934 -1.35165066 18.78276457 -1.9140625 23.73046875 C-2.0014276 26.03770164 -1.67660142 27.80357001 -1 30 C-1.99 30.66 -2.98 31.32 -4 32 C-4.99 31.34 -5.98 30.68 -7 30 C-7 28.68 -7 27.36 -7 26 C-7.99 26.33 -8.98 26.66 -10 27 C-10.45088976 15.89475212 -9.75892535 9.72216675 -2.3046875 1.28515625 C-1 0 -1 0 0 0 Z " fill="#15B1A3" transform="translate(102,241)"/>
<path d="M0 0 C0.763125 0.33 1.52625 0.66 2.3125 1 C4.99069135 2.17436686 4.99069135 2.17436686 8 2 C7.67 2.99 7.34 3.98 7 5 C4.8203125 5.9140625 4.8203125 5.9140625 2.125 6.625 C1.24070312 6.86476562 0.35640625 7.10453125 -0.5546875 7.3515625 C-1.76511719 7.67253906 -1.76511719 7.67253906 -3 8 C-3.99 8.33 -4.98 8.66 -6 9 C-6 9.66 -6 10.32 -6 11 C-6.99 11.33 -7.98 11.66 -9 12 C-6.36 12 -3.72 12 -1 12 C-4.03245907 15.03245907 -7.93955822 16.50968512 -11.76953125 18.34570312 C-14.43693042 19.64556678 -16.89390204 20.91904983 -19.2578125 22.72265625 C-21 24 -21 24 -24 24 C-23.85662852 19.26874118 -21.56979855 16.93832731 -18.30859375 13.83984375 C-13.89181946 10.31987642 -8.92618115 7.72956529 -4 5 C-0.75150023 3.27773504 -0.75150023 3.27773504 0 0 Z " fill="#55BEB4" transform="translate(107,218)"/>
<path d="M0 0 C-2.5970022 3.8955033 -5.31387897 4.16539843 -9.625 5.1875 C-10.68460937 5.45336914 -10.68460937 5.45336914 -11.765625 5.72460938 C-13.50784364 6.16016404 -15.25361516 6.58146251 -17 7 C-12.35413108 6.51515724 -12.35413108 6.51515724 -8 5 C-6.5461507 4.79792056 -5.08651638 4.63595501 -3.625 4.5 C-1.24456461 4.27708297 0.87267577 4.03861096 3.1640625 3.34375 C4.07285156 3.17359375 4.07285156 3.17359375 5 3 C5.66 3.66 6.32 4.32 7 5 C2.59160814 6.00789501 -1.81916363 7.00435369 -6.23242188 7.99072266 C-7.73050861 8.32717926 -9.22792356 8.66664273 -10.72460938 9.00927734 C-12.88758442 9.50387764 -15.05281929 9.98727949 -17.21875 10.46875 C-17.87742065 10.62186646 -18.53609131 10.77498291 -19.21472168 10.93273926 C-23.92712496 11.96455064 -28.20923537 12.13048775 -33 12 C-33.33 11.01 -33.66 10.02 -34 9 C-31.1679225 8.03781983 -28.33443873 7.0801792 -25.5 6.125 C-24.70851563 5.85558594 -23.91703125 5.58617187 -23.1015625 5.30859375 C-18.11006114 3.63112198 -13.15684218 2.08384957 -8 1 C-7.34 1.33 -6.68 1.66 -6 2 C-6 1.34 -6 0.68 -6 0 C-2.25 -1.125 -2.25 -1.125 0 0 Z " fill="#489A9B" transform="translate(282,234)"/>
<path d="M0 0 C0 0.66 0 1.32 0 2 C0.99 2.33 1.98 2.66 3 3 C1.90234375 4.48046875 1.90234375 4.48046875 0 6 C-8.692338 7.07641469 -17.48010366 5.74767104 -26 4 C-26 3.34 -26 2.68 -26 2 C-26.66 1.67 -27.32 1.34 -28 1 C-23.28699651 -3.71300349 -6.10934602 -1.28617811 0 0 Z " fill="#030405" transform="translate(188,210)"/>
<path d="M0 0 C9.82322893 1.16943202 19.35511304 2.77082736 29 5 C29.495 6.98 29.495 6.98 30 9 C17.13 8.01 4.26 7.02 -9 6 C-9 5.67 -9 5.34 -9 5 C-6.36 5 -3.72 5 -1 5 C-0.67 3.35 -0.34 1.7 0 0 Z " fill="#209791" transform="translate(182,217)"/>
<path d="M0 0 C8.87660542 1.10957568 17.74128354 5.5674303 24 12 C24 12.99 24 13.98 24 15 C20.36197299 14.6361973 17.57376763 13.87397707 14.40625 12.125 C9.76902829 9.74655403 5.04393482 8.48192878 0 7.25 C-0.87011719 7.02957031 -1.74023438 6.80914062 -2.63671875 6.58203125 C-4.75574811 6.0464524 -6.87759543 5.52204306 -9 5 C-9 4.67 -9 4.34 -9 4 C-7.04174127 3.97305149 -5.08337774 3.95362782 -3.125 3.9375 C-2.03445313 3.92589844 -0.94390625 3.91429687 0.1796875 3.90234375 C3 4 3 4 5 5 C4.67 4.34 4.34 3.68 4 3 C1.97536745 2.34786708 1.97536745 2.34786708 0 2 C0 1.34 0 0.68 0 0 Z " fill="#3AB3AB" transform="translate(366,231)"/>
<path d="M0 0 C0.66 1.65 1.32 3.3 2 5 C1.43152344 5.12117188 0.86304688 5.24234375 0.27734375 5.3671875 C-0.49480469 5.53476562 -1.26695312 5.70234375 -2.0625 5.875 C-2.81660156 6.03742188 -3.57070312 6.19984375 -4.34765625 6.3671875 C-7.12165492 6.99187866 -7.12165492 6.99187866 -10.25 8.0546875 C-14.59515047 9.15002752 -18.48216627 9.2951173 -22.9375 9.25 C-23.69740234 9.25773437 -24.45730469 9.26546875 -25.24023438 9.2734375 C-30.46676955 9.25558426 -34.9758606 8.44036761 -40 7 C-40 6.67 -40 6.34 -40 6 C-35.71 6 -31.42 6 -27 6 C-27 5.34 -27 4.68 -27 4 C-26.03320312 3.96261719 -25.06640625 3.92523438 -24.0703125 3.88671875 C-16.97075562 3.52822627 -10.62249815 2.99012079 -3.85546875 0.62109375 C-2 0 -2 0 0 0 Z " fill="#5BBBBC" transform="translate(155,281)"/>
<path d="M0 0 C0.825 0.5775 1.65 1.155 2.5 1.75 C8.71387419 5.86340967 14.71185414 8.43825446 22 10 C22 10.99 22 11.98 22 13 C25.96 13 29.92 13 34 13 C34 13.33 34 13.66 34 14 C6.60587819 14.34100567 6.60587819 14.34100567 0 10 C0 9.67 0 9.34 0 9 C2.31 9 4.62 9 7 9 C7 8.34 7 7.68 7 7 C6.401875 6.9175 5.80375 6.835 5.1875 6.75 C2.37067727 5.78423221 1.52200868 4.51131433 0 2 C0 1.34 0 0.68 0 0 Z " fill="#56C5BF" transform="translate(106,274)"/>
<path d="M0 0 C0.495 1.485 0.495 1.485 1 3 C-2.5737131 4.1912377 -5.96154359 4.27175083 -9.6875 4.4375 C-14.07766549 4.65977447 -18.3225236 4.8764694 -22.5625 6.125 C-26.59188695 7.15066213 -28.98088993 6.8373146 -33 6 C-32.34 5.34 -31.68 4.68 -31 4 C-30.01 4 -29.02 4 -28 4 C-28 3.34 -28 2.68 -28 2 C-18.63914824 -0.26439611 -9.55650317 -0.20166126 0 0 Z " fill="#13B1A4" transform="translate(152,217)"/>
<path d="M0 0 C2.3828125 -0.29296875 2.3828125 -0.29296875 5.125 -0.1875 C6.03507813 -0.16042969 6.94515625 -0.13335937 7.8828125 -0.10546875 C8.58148438 -0.07066406 9.28015625 -0.03585937 10 0 C9.85769192 1.41702513 9.71099254 2.8336096 9.5625 4.25 C9.48128906 5.03890625 9.40007812 5.8278125 9.31640625 6.640625 C9.02365007 8.82364639 8.57935581 10.8773182 8 13 C6.68 13.33 5.36 13.66 4 14 C3.67 13.01 3.34 12.02 3 11 C0.98491642 10.26676204 0.98491642 10.26676204 -1 10 C-2.25 3.375 -2.25 3.375 0 0 Z " fill="#0F0F0F" transform="translate(247,260)"/>
<path d="M0 0 C7.13217406 0.57828438 15.08281074 3.69322591 20.1875 8.8125 C20.785625 9.534375 21.38375 10.25625 22 11 C19.50333131 11.92573109 18.42835861 12.19411279 15.95703125 11.07421875 C15.24933594 10.61660156 14.54164063 10.15898437 13.8125 9.6875 C6.03514764 5.10736264 -2.13052639 4.6299813 -11 4 C-11 3.67 -11 3.34 -11 3 C-7.37 3 -3.74 3 0 3 C0 2.01 0 1.02 0 0 Z " fill="#6DCAC5" transform="translate(142,229)"/>
<path d="M0 0 C9.57 0.33 19.14 0.66 29 1 C28.01 1.495 28.01 1.495 27 2 C27 2.99 27 3.98 27 5 C5.77448893 5.43121806 5.77448893 5.43121806 0 2 C0 1.34 0 0.68 0 0 Z " fill="#19A89E" transform="translate(154,217)"/>
<path d="M0 0 C2.475 0.99 2.475 0.99 5 2 C5 2.66 5 3.32 5 4 C6.98 4.66 8.96 5.32 11 6 C11 6.33 11 6.66 11 7 C8.69 7 6.38 7 4 7 C4 6.34 4 5.68 4 5 C-1.99022411 3.59847443 -7.85138456 4.12256811 -13.9375 4.4375 C-23.30497449 4.87254733 -32.62306164 5.13722349 -42 5 C-42 4.67 -42 4.34 -42 4 C-37.62639779 3.56655919 -33.25222278 3.13959358 -28.87744141 2.71826172 C-27.39354991 2.57447254 -25.90981983 2.4290061 -24.42626953 2.28173828 C-16.26545499 1.47281061 -8.21282319 0.80561365 0 1 C0 0.67 0 0.34 0 0 Z M-9 2 C-9 2.33 -9 2.66 -9 3 C-7.35 3 -5.7 3 -4 3 C-4 2.67 -4 2.34 -4 2 C-5.65 2 -7.3 2 -9 2 Z " fill="#56B1AA" transform="translate(355,224)"/>
<path d="M0 0 C2.05078125 0.03255208 4.1015625 0.06510417 6.15234375 0.09765625 C7.4127605 2.61848975 6.81460266 3.44862061 6.15234375 6.09765625 C6.48234375 6.75765625 6.81234375 7.41765625 7.15234375 8.09765625 C6.82234375 8.75765625 6.49234375 9.41765625 6.15234375 10.09765625 C4.69491912 10.17862428 3.23621568 10.23683399 1.77734375 10.28515625 C0.96523438 10.31996094 0.153125 10.35476563 -0.68359375 10.390625 C-1.39773438 10.29394531 -2.111875 10.19726562 -2.84765625 10.09765625 C-3.50765625 9.10765625 -4.16765625 8.11765625 -4.84765625 7.09765625 C-3.04409784 0.16089312 -3.04409784 0.16089312 0 0 Z " fill="#060606" transform="translate(292.84765625,282.90234375)"/>
<path d="M0 0 C0 0.33 0 0.66 0 1 C-1.2065625 1.185625 -1.2065625 1.185625 -2.4375 1.375 C-3.283125 1.58125 -4.12875 1.7875 -5 2 C-5.33 2.66 -5.66 3.32 -6 4 C-5.13971191 3.83846436 -4.27942383 3.67692871 -3.39306641 3.51049805 C2.2620547 2.6596664 7.9161157 2.81548894 13.625 2.8125 C14.83285156 2.80025391 16.04070312 2.78800781 17.28515625 2.77539062 C25.05800421 2.76284028 32.38205227 3.45131562 40 5 C40 5.33 40 5.66 40 6 C38.74123047 5.89171875 38.74123047 5.89171875 37.45703125 5.78125 C13.95213489 3.57719321 13.95213489 3.57719321 -9.16796875 6.625 C-9.77253906 6.74875 -10.37710938 6.8725 -11 7 C-12.75 5.5625 -12.75 5.5625 -14 4 C-13.01 3.67 -12.02 3.34 -11 3 C-11 2.34 -11 1.68 -11 1 C-7.26562152 0.12132271 -3.83225427 -0.08912219 0 0 Z " fill="#12262A" transform="translate(134,210)"/>
<path d="M0 0 C0.66 0 1.32 0 2 0 C2.33 0.66 2.66 1.32 3 2 C7.28989278 3.42996426 11.56898963 3.38544316 16.06640625 3.62109375 C19 4 19 4 21 6 C19.91452881 5.99214478 19.91452881 5.99214478 18.80712891 5.98413086 C4.4993666 5.89455143 -9.72626961 5.95512562 -24 7 C-23.67 6.34 -23.34 5.68 -23 5 C-18.24998443 3.56262054 -13.11424555 3.66160998 -8.1875 3.4375 C-7.30384766 3.39431641 -6.42019531 3.35113281 -5.50976562 3.30664062 C-3.34000377 3.20108464 -1.1700209 3.10008929 1 3 C0.67 2.01 0.34 1.02 0 0 Z " fill="#58BBB8" transform="translate(152,217)"/>
<path d="M0 0 C0.66 0.33 1.32 0.66 2 1 C1.67 2.65 1.34 4.3 1 6 C-3.62489228 6.68881374 -8.22635771 7.23204052 -12.88671875 7.62109375 C-15.21713326 8.03893147 -16.89575294 8.94149996 -19 10 C-22.25 10.125 -22.25 10.125 -25 10 C-24.67 9.34 -24.34 8.68 -24 8 C-20.86509046 7.07598728 -17.73118415 6.31513416 -14.546875 5.58789062 C-10.81448995 4.67657871 -8.51662796 3.92226865 -6 1 C-3.375 0.875 -3.375 0.875 -1 1 C-0.67 0.67 -0.34 0.34 0 0 Z " fill="#18A396" transform="translate(289,232)"/>
<path d="M0 0 C0.78117188 0.10828125 1.56234375 0.2165625 2.3671875 0.328125 C4.78009619 0.72312073 7.17717557 1.14887836 9.5625 1.6875 C9.8925 3.0075 10.2225 4.3275 10.5625 5.6875 C7.7704699 5.5470017 4.97900204 5.40034617 2.1875 5.25 C1.3934375 5.21068359 0.599375 5.17136719 -0.21875 5.13085938 C-6.2109375 4.80078125 -6.2109375 4.80078125 -8.4375 3.6875 C-8.4375 3.0275 -8.4375 2.3675 -8.4375 1.6875 C-5.36775928 -0.12928532 -3.51925355 -0.50623578 0 0 Z " fill="#62ACAD" transform="translate(201.4375,220.3125)"/>
<path d="M0 0 C-2.36292656 2.52588702 -3.66462511 3.88820837 -7 5 C-7.33 5.66 -7.66 6.32 -8 7 C-11.98375661 8.17169312 -15.87439224 8.08089427 -20 8 C-19.34 7.34 -18.68 6.68 -18 6 C-17.01 6 -16.02 6 -15 6 C-15 5.34 -15 4.68 -15 4 C-9.77228537 0.95842058 -6.07328688 -0.50610724 0 0 Z " fill="#1AAEA4" transform="translate(116,223)"/>
<path d="M0 0 C0.66 1.32 1.32 2.64 2 4 C0.7934375 5.2684375 0.7934375 5.2684375 -0.4375 6.5625 C-4.85973724 11.89666752 -4.11555521 18.4133529 -4 25 C-4.66 25 -5.32 25 -6 25 C-8.31104482 18.06686553 -6.87925578 12.82058478 -4.16796875 6.296875 C-2.98677729 3.97399681 -1.6257467 2.0310188 0 0 Z " fill="#4EBEB5" transform="translate(97,241)"/>
<path d="M0 0 C0.33 0 0.66 0 1 0 C1.268125 1.051875 1.53625 2.10375 1.8125 3.1875 C2.8676829 6.57519246 4.04726378 9.07089567 6 12 C5.01 12.495 5.01 12.495 4 13 C3.01 12.01 2.02 11.02 1 10 C0.34 11.98 -0.32 13.96 -1 16 C-4.39417765 12.87378374 -6.6062718 10.43458973 -8 6 C-7.01 5.67 -6.02 5.34 -5 5 C-5 6.32 -5 7.64 -5 9 C-3.68 9.33 -2.36 9.66 -1 10 C0.16148326 6.51555023 -0.38107997 4.55879018 -1 1 C-0.67 0.67 -0.34 0.34 0 0 Z " fill="#49BCB3" transform="translate(100,262)"/>
<path d="M0 0 C4.98905575 -0.13466603 9.49009795 0.29698198 14.375 1.3125 C15.59960938 1.55613281 16.82421875 1.79976562 18.0859375 2.05078125 C19.52839844 2.52064453 19.52839844 2.52064453 21 3 C21.33 3.99 21.66 4.98 22 6 C16.06 5.67 10.12 5.34 4 5 C4.99 4.67 5.98 4.34 7 4 C6.67 3.34 6.34 2.68 6 2 C2.97065509 1.34227572 2.97065509 1.34227572 0 1 C0 0.67 0 0.34 0 0 Z " fill="#4F5557" transform="translate(334,220)"/>
<path d="M0 0 C2.31 0.33 4.62 0.66 7 1 C7.33 1.99 7.66 2.98 8 4 C4.94080612 5.01973129 2.87581975 5.11533602 -0.32421875 5.09765625 C-1.35224609 5.09443359 -2.38027344 5.09121094 -3.43945312 5.08789062 C-4.51130859 5.07951172 -5.58316406 5.07113281 -6.6875 5.0625 C-7.77095703 5.05798828 -8.85441406 5.05347656 -9.97070312 5.04882812 C-12.64719085 5.03703743 -15.32356777 5.02058063 -18 5 C-18 4.67 -18 4.34 -18 4 C-9.09 3.01 -9.09 3.01 0 2 C0 1.34 0 0.68 0 0 Z " fill="#081C1C" transform="translate(333,220)"/>
<path d="M0 0 C0.33 0 0.66 0 1 0 C2.125 6.75 2.125 6.75 1 9 C1.061875 10.134375 1.12375 11.26875 1.1875 12.4375 C1.3010646 18.04346176 -0.89614813 22.89064545 -3 28 C-3.33 28 -3.66 28 -4 28 C-4 22.8018213 -3.91646605 18.23410075 -2.5625 13.1875 C-1.41966628 8.78327758 -0.5133613 4.51757943 0 0 Z " fill="#2E3133" transform="translate(159,264)"/>
<path d="M0 0 C2.125 0.9375 2.125 0.9375 4 2 C-0.39388136 3.00871032 -4.7903952 4.00544344 -9.1875 5 C-10.43337891 5.28617188 -11.67925781 5.57234375 -12.96289062 5.8671875 C-14.16494141 6.13789063 -15.36699219 6.40859375 -16.60546875 6.6875 C-18.26292114 7.06455078 -18.26292114 7.06455078 -19.95385742 7.44921875 C-22.7228135 7.94988116 -25.19631111 8.10950127 -28 8 C-27.67 7.34 -27.34 6.68 -27 6 C-26.01 6 -25.02 6 -24 6 C-24 5.34 -24 4.68 -24 4 C-23.39671875 4.02320313 -22.7934375 4.04640625 -22.171875 4.0703125 C-21.37265625 4.08835938 -20.5734375 4.10640625 -19.75 4.125 C-18.56664062 4.15980469 -18.56664062 4.15980469 -17.359375 4.1953125 C-14.75693551 3.97987877 -13.29892367 3.18552338 -11 2 C-8.7109375 1.62109375 -8.7109375 1.62109375 -6.375 1.4375 C-3.06333997 1.18115456 -3.06333997 1.18115456 0 0 Z " fill="#53B8B4" transform="translate(285,237)"/>
<path d="M0 0 C22.80127986 -0.20638953 22.80127986 -0.20638953 32 1 C32 1.33 32 1.66 32 2 C24.6889036 2.90579955 17.36777571 3.41269254 10 3 C9.67 2.67 9.34 2.34 9 2 C7.48530552 1.76807135 5.96245438 1.58784762 4.4375 1.4375 C3.61121094 1.35371094 2.78492188 1.26992187 1.93359375 1.18359375 C1.29550781 1.12300781 0.65742188 1.06242188 0 1 C0 0.67 0 0.34 0 0 Z " fill="#4B4F4D" transform="translate(150,207)"/>
<path d="M0 0 C0.556875 0.268125 1.11375 0.53625 1.6875 0.8125 C1.5625 3.0625 1.5625 3.0625 0.6875 5.8125 C-4.28547297 9.8125 -4.28547297 9.8125 -8.3125 9.8125 C-8.00654824 6.24306285 -7.28825359 4.78235581 -5 1.9375 C-2.3125 -0.1875 -2.3125 -0.1875 0 0 Z " fill="#68C0BC" transform="translate(91.3125,232.1875)"/>
<path d="M0 0 C-0.66 0.66 -1.32 1.32 -2 2 C-1.34 2.66 -0.68 3.32 0 4 C-1.74635165 4.53293835 -3.49727652 5.05090663 -5.25 5.5625 C-6.22453125 5.85253906 -7.1990625 6.14257812 -8.203125 6.44140625 C-10.96243932 6.99249836 -12.3912824 6.93789609 -15 6 C-12.74109621 3.48045346 -10.582103 2.12667267 -7.5 0.75 C-6.7265625 0.39421875 -5.953125 0.0384375 -5.15625 -0.328125 C-3 -1 -3 -1 0 0 Z " fill="#507271" transform="translate(123,213)"/>
<path d="M0 0 C1.63001953 0.15275391 1.63001953 0.15275391 3.29296875 0.30859375 C4.54013672 0.43427734 4.54013672 0.43427734 5.8125 0.5625 C5.8125 1.2225 5.8125 1.8825 5.8125 2.5625 C9.7725 2.5625 13.7325 2.5625 17.8125 2.5625 C17.8125 2.8925 17.8125 3.2225 17.8125 3.5625 C8.73801747 3.67407151 -0.15028689 3.50492818 -9.1875 2.5625 C-9.1875 1.9025 -9.1875 1.2425 -9.1875 0.5625 C-5.76060364 -0.57979879 -3.57647782 -0.34611076 0 0 Z " fill="#24B2A8" transform="translate(122.1875,284.4375)"/>
<path d="M0 0 C5.61 0 11.22 0 17 0 C17 0.99 17 1.98 17 3 C15.10801281 3.27761216 13.21098334 3.52099115 11.3125 3.75 C9.72888672 3.95882812 9.72888672 3.95882812 8.11328125 4.171875 C5 4 5 4 0 0 Z " fill="#1CA49B" transform="translate(125,229)"/>
<path d="M0 0 C5.4389165 -0.21755666 9.87080814 -0.10428384 15 2 C14.67 2.66 14.34 3.32 14 4 C12.41705218 4.05437607 10.83355744 4.09296271 9.25 4.125 C8.36828125 4.14820313 7.4865625 4.17140625 6.578125 4.1953125 C3.8864142 3.99139502 2.30095026 3.36551721 0 2 C0 1.34 0 0.68 0 0 Z " fill="#13B1A4" transform="translate(154,217)"/>
<path d="M0 0 C3.32310483 1.16757737 5.83361132 2.14948857 8 5 C8 5.99 8 6.98 8 8 C3.43545749 7.45660208 0.0271824 6.20536179 -4 4 C-2.68 3.34 -1.36 2.68 0 2 C0 1.34 0 0.68 0 0 Z " fill="#6EC6C3" transform="translate(382,238)"/>
<path d="M0 0 C4.40958108 0.66607439 8.26572186 2.26624729 12.3125 4.0625 C13.28026367 4.48499023 13.28026367 4.48499023 14.26757812 4.91601562 C15.84698358 5.6062743 17.42376493 6.30253198 19 7 C19 7.33 19 7.66 19 8 C17.35 8 15.7 8 14 8 C14 7.34 14 6.68 14 6 C13.01 6.33 12.02 6.66 11 7 C8.30078125 6.22265625 8.30078125 6.22265625 5.3125 5.0625 C4.31863281 4.68222656 3.32476562 4.30195313 2.30078125 3.91015625 C1.54152344 3.60980469 0.78226562 3.30945313 0 3 C0 2.01 0 1.02 0 0 Z " fill="#434343" transform="translate(326,194)"/>
<path d="M0 0 C0 0.33 0 0.66 0 1 C-1.2065625 1.185625 -1.2065625 1.185625 -2.4375 1.375 C-3.283125 1.58125 -4.12875 1.7875 -5 2 C-5.33 2.66 -5.66 3.32 -6 4 C-5.01 3.67 -4.02 3.34 -3 3 C-3 3.66 -3 4.32 -3 5 C-8.37305699 6.67357513 -8.37305699 6.67357513 -11 7 C-13 5.625 -13 5.625 -14 4 C-13.01 3.67 -12.02 3.34 -11 3 C-11 2.34 -11 1.68 -11 1 C-7.26562152 0.12132271 -3.83225427 -0.08912219 0 0 Z " fill="#454C4D" transform="translate(134,210)"/>
<path d="M0 0 C0.99 0 1.98 0 3 0 C3.93677207 3.00575788 4.03997676 5.06377778 3.3125 8.125 C3.16425781 8.80820312 3.01601563 9.49140625 2.86328125 10.1953125 C2 12 2 12 -2 14 C-1.34 9.38 -0.68 4.76 0 0 Z " fill="#2E2E2E" transform="translate(291,271)"/>
<path d="M0 0 C0 0.66 0 1.32 0 2 C-0.99 2.33 -1.98 2.66 -3 3 C-3.33 3.66 -3.66 4.32 -4 5 C-6.64 5 -9.28 5 -12 5 C-12.33 4.01 -12.66 3.02 -13 2 C-8.50343896 -0.24828052 -4.92127034 -0.16682272 0 0 Z " fill="#3C7574" transform="translate(261,241)"/>
<path d="M0 0 C-3.6441774 2.4294516 -5.71241272 2.16179575 -10 2 C-10 2.66 -10 3.32 -10 4 C-13.01324195 5.50662097 -15.68286377 5.17770373 -19 5 C-19.66 4.34 -20.32 3.68 -21 3 C-18.6263603 2.49265716 -16.25142575 1.99397614 -13.875 1.5 C-13.20984375 1.35691406 -12.5446875 1.21382812 -11.859375 1.06640625 C-7.83943578 0.2387717 -4.10095101 -0.15330658 0 0 Z " fill="#15ACA0" transform="translate(314,229)"/>
<path d="M0 0 C3.3 0.33 6.6 0.66 10 1 C9.67 1.99 9.34 2.98 9 4 C8.01 4 7.02 4 6 4 C6 4.66 6 5.32 6 6 C3.03 6 0.06 6 -3 6 C-3 5.67 -3 5.34 -3 5 C-1.35 4.67 0.3 4.34 2 4 C1.34 2.68 0.68 1.36 0 0 Z " fill="#3C9696" transform="translate(187,218)"/>
<path d="M0 0 C1.60407328 -0.02708567 3.2082785 -0.04643483 4.8125 -0.0625 C5.70582031 -0.07410156 6.59914063 -0.08570313 7.51953125 -0.09765625 C10 0 10 0 13 1 C15.22574335 1.22451458 17.45581519 1.40782878 19.6875 1.5625 C20.86699219 1.64628906 22.04648438 1.73007812 23.26171875 1.81640625 C24.61716797 1.90728516 24.61716797 1.90728516 26 2 C26 2.33 26 2.66 26 3 C23.16640156 3.05449228 20.33387515 3.09390733 17.5 3.125 C16.70851562 3.14175781 15.91703125 3.15851563 15.1015625 3.17578125 C9.72001921 3.21989226 5.17000073 2.50594058 0 1 C0 0.67 0 0.34 0 0 Z " fill="#79CECB" transform="translate(115,287)"/>
<path d="M0 0 C2.1640625 -0.29296875 2.1640625 -0.29296875 4.625 -0.1875 C5.44226563 -0.16042969 6.25953125 -0.13335937 7.1015625 -0.10546875 C8.04128906 -0.05326172 8.04128906 -0.05326172 9 0 C9 0.33 9 0.66 9 1 C6.36 1 3.72 1 1 1 C0.34 2.65 -0.32 4.3 -1 6 C-0.34 6.33 0.32 6.66 1 7 C0.34 8.65 -0.32 10.3 -1 12 C-1.99 11.67 -2.98 11.34 -4 11 C-4.26795363 6.0428578 -2.7333905 4.10008575 0 0 Z " fill="#5B5B5B" transform="translate(246,259)"/>
<path d="M0 0 C3.40320742 1.01176437 4.75725331 1.64843582 6.8125 4.625 C7.204375 5.40875 7.59625 6.1925 8 7 C3.12637153 6.54663921 0.60957611 5.2910841 -3 2 C-2.01 2 -1.02 2 0 2 C0 1.34 0 0.68 0 0 Z " fill="#9CCCCF" transform="translate(156,234)"/>
<path d="M0 0 C1.21816406 0.03480469 1.21816406 0.03480469 2.4609375 0.0703125 C3.68683594 0.09738281 3.68683594 0.09738281 4.9375 0.125 C5.87722656 0.15980469 5.87722656 0.15980469 6.8359375 0.1953125 C6.8359375 0.5253125 6.8359375 0.8553125 6.8359375 1.1953125 C4.1959375 1.1953125 1.5559375 1.1953125 -1.1640625 1.1953125 C-1.8455448 3.08710453 -1.8455448 3.08710453 -2.1640625 5.1953125 C-1.5040625 5.8553125 -0.8440625 6.5153125 -0.1640625 7.1953125 C-1.1540625 8.5153125 -2.1440625 9.8353125 -3.1640625 11.1953125 C-3.8240625 10.8653125 -4.4840625 10.5353125 -5.1640625 10.1953125 C-4.21422697 0.38034539 -4.21422697 0.38034539 0 0 Z " fill="#545454" transform="translate(400.1640625,258.8046875)"/>
<path d="M0 0 C1.89382164 -0.13592021 3.79049704 -0.2324094 5.6875 -0.3125 C6.74324219 -0.37050781 7.79898437 -0.42851562 8.88671875 -0.48828125 C12 0 12 0 17 5 C8.585 3.02 8.585 3.02 0 1 C0 0.67 0 0.34 0 0 Z " fill="#58C4BE" transform="translate(357,235)"/>
<path d="M0 0 C0.99 0 1.98 0 3 0 C3 0.99 3 1.98 3 3 C2.360625 3.268125 1.72125 3.53625 1.0625 3.8125 C-1.33131686 4.88667752 -1.33131686 4.88667752 -2 8 C-1.34 8.33 -0.68 8.66 0 9 C-1.65 9.33 -3.3 9.66 -5 10 C-4.49942848 5.61999924 -3.06806466 3.15830185 0 0 Z " fill="#5F5F5F" transform="translate(208,188)"/>
<path d="M0 0 C1.5 1.375 1.5 1.375 3 3 C3 3.66 3 4.32 3 5 C1.35 5.33 -0.3 5.66 -2 6 C-2.33 6.99 -2.66 7.98 -3 9 C-3.99 8.67 -4.98 8.34 -6 8 C-4.7260411 5.96166576 -3.38938077 3.96147874 -2 2 C-1.34 2 -0.68 2 0 2 C0 1.34 0 0.68 0 0 Z M4 0 C4.33 0.99 4.66 1.98 5 3 C4.34 3 3.68 3 3 3 C3.33 2.01 3.66 1.02 4 0 Z " fill="#060606" transform="translate(175,258)"/>
<path d="M0 0 C0 0.66 0 1.32 0 2 C0.66 2.33 1.32 2.66 2 3 C-2.95 3 -7.9 3 -13 3 C-12.67 2.34 -12.34 1.68 -12 1 C-7.973409 0.22565558 -4.09613971 -0.12412545 0 0 Z " fill="#000304" transform="translate(333,220)"/>
<path d="M0 0 C2.31 0.33 4.62 0.66 7 1 C6.67 1.66 6.34 2.32 6 3 C3.24921116 3.91692961 1.64051087 4.10886083 -1.1875 4.0625 C-3.0746875 4.0315625 -3.0746875 4.0315625 -5 4 C-5 3.34 -5 2.68 -5 2 C-4.01 1.67 -3.02 1.34 -2 1 C-1.34 1.33 -0.68 1.66 0 2 C0 1.34 0 0.68 0 0 Z " fill="#6AB9B1" transform="translate(127,215)"/>
<path d="M0 0 C0.5775 0.639375 1.155 1.27875 1.75 1.9375 C3.98062401 3.98223868 5.07436391 4.58205199 8 5 C8 5.66 8 6.32 8 7 C5.6739143 7.38063221 3.33944736 7.71269945 1 8 C0 7 0 7 -0.0625 3.4375 C-0.041875 2.303125 -0.02125 1.16875 0 0 Z " fill="#1F1F1F" transform="translate(376,285)"/>
<path d="M0 0 C0.33 0.66 0.66 1.32 1 2 C-0.8253125 2.2165625 -0.8253125 2.2165625 -2.6875 2.4375 C-5.15532135 2.73451213 -7.45097563 3.107842 -9.875 3.6875 C-10.57625 3.790625 -11.2775 3.89375 -12 4 C-12.66 3.34 -13.32 2.68 -14 2 C-9.07262981 0.02905192 -5.21979128 -0.1799928 0 0 Z " fill="#609F9D" transform="translate(296,230)"/>
<path d="M0 0 C1.1446875 0.495 1.1446875 0.495 2.3125 1 C4.99069135 2.17436686 4.99069135 2.17436686 8 2 C7.67 2.99 7.34 3.98 7 5 C3.7 5.66 0.4 6.32 -3 7 C-2.01 4.69 -1.02 2.38 0 0 Z " fill="#65B7B1" transform="translate(107,218)"/>
<path d="M0 0 C5.05255964 0.63156995 9.29593201 2.13459373 14 4 C13.01 4.99 12.02 5.98 11 7 C10.67 6.01 10.34 5.02 10 4 C9.01 4.33 8.02 4.66 7 5 C6.01 4.34 5.02 3.68 4 3 C3.01 3.495 3.01 3.495 2 4 C1.34 3.67 0.68 3.34 0 3 C0 2.01 0 1.02 0 0 Z " fill="#383838" transform="translate(312,189)"/>
<path d="M0 0 C0.66 1.65 1.32 3.3 2 5 C-0.31 5.33 -2.62 5.66 -5 6 C-5 5.01 -5 4.02 -5 3 C-5.99 2.67 -6.98 2.34 -8 2 C-2.25 0 -2.25 0 0 0 Z " fill="#88BBC6" transform="translate(155,281)"/>
<path d="M0 0 C1.32 0 2.64 0 4 0 C3.1875 1.9375 3.1875 1.9375 2 4 C1.01 4.33 0.02 4.66 -1 5 C-1 5.99 -1 6.98 -1 8 C-0.34 8.33 0.32 8.66 1 9 C-0.32 9.99 -1.64 10.98 -3 12 C-2.88541307 10.56163249 -2.75790884 9.12429034 -2.625 7.6875 C-2.55539062 6.88699219 -2.48578125 6.08648437 -2.4140625 5.26171875 C-2 3 -2 3 0 0 Z " fill="#535353" transform="translate(364,260)"/>
<path d="M0 0 C4.29 0 8.58 0 13 0 C13.33 1.32 13.66 2.64 14 4 C9.02906176 3.58846263 4.55491614 3.20399168 0 1 C0 0.67 0 0.34 0 0 Z " fill="#326466" transform="translate(198,222)"/>
<path d="M0 0 C1.48206495 0.254496 2.96068615 0.52911762 4.4375 0.8125 C5.67306641 1.03873047 5.67306641 1.03873047 6.93359375 1.26953125 C7.95646484 1.63111328 7.95646484 1.63111328 9 2 C9.33 2.99 9.66 3.98 10 5 C6.79937313 6.60031344 4.27728194 5.03173691 1 4 C0.67 2.68 0.34 1.36 0 0 Z " fill="#26B2A9" transform="translate(373,236)"/>
<path d="M0 0 C1.53202706 0.25195908 3.05257128 0.57596777 4.5625 0.9375 C5.38878906 1.13214844 6.21507812 1.32679688 7.06640625 1.52734375 C8.02353516 1.76130859 8.02353516 1.76130859 9 2 C9 2.66 9 3.32 9 4 C4.545 4.495 4.545 4.495 0 5 C-0.33 3.68 -0.66 2.36 -1 1 C-0.67 0.67 -0.34 0.34 0 0 Z " fill="#4ABAB2" transform="translate(290,233)"/>
<path d="M0 0 C5.46639447 0.18530151 5.46639447 0.18530151 7.6875 1.125 C8.0175 2.115 8.3475 3.105 8.6875 4.125 C6.89509337 4.01110125 5.10355165 3.88352313 3.3125 3.75 C1.81589844 3.64558594 1.81589844 3.64558594 0.2890625 3.5390625 C-2.3125 3.125 -2.3125 3.125 -4.3125 1.125 C-3.3125 0.125 -3.3125 0.125 0 0 Z " fill="#0D2523" transform="translate(347.3125,221.875)"/>
<path d="M0 0 C0.83144531 0.05220703 1.66289062 0.10441406 2.51953125 0.15820312 C4.55508108 0.28688731 6.59010441 0.42385407 8.625 0.5625 C8.625 0.8925 8.625 1.2225 8.625 1.5625 C5.7503509 1.75836184 2.87561717 1.94443799 0 2.125 C-1.21236328 2.20911133 -1.21236328 2.20911133 -2.44921875 2.29492188 C-6.93662516 2.56854422 -10.94362499 2.53051881 -15.375 1.5625 C-15.375 1.2325 -15.375 0.9025 -15.375 0.5625 C-10.12418443 -0.58452282 -5.30983462 -0.36838566 0 0 Z " fill="#747476" transform="translate(324.375,218.4375)"/>
<path d="M0 0 C2.06277107 0.14194764 4.12521031 0.28872216 6.1875 0.4375 C7.91033203 0.55931641 7.91033203 0.55931641 9.66796875 0.68359375 C12.51598171 0.95403812 15.21210482 1.37521747 18 2 C18 2.33 18 2.66 18 3 C5.33029613 3.3690205 5.33029613 3.3690205 0 1 C0 0.67 0 0.34 0 0 Z " fill="#6FB9B7" transform="translate(162,215)"/>
<path d="M0 0 C2.60018816 3.90028225 2.15085514 7.47434569 2 12 C1.34 12 0.68 12 0 12 C-1.29449495 8.11651516 -1.13203312 5.09302664 -1 1 C-0.67 0.67 -0.34 0.34 0 0 Z " fill="#59C2BB" transform="translate(91,254)"/>
<path d="M0 0 C1.65 0 3.3 0 5 0 C5 0.66 5 1.32 5 2 C6.65 2.33 8.3 2.66 10 3 C10 3.66 10 4.32 10 5 C6.7 4.34 3.4 3.68 0 3 C0 2.01 0 1.02 0 0 Z " fill="#13B0A3" transform="translate(361,231)"/>
<path d="M0 0 C6.6 0 13.2 0 20 0 C20 0.33 20 0.66 20 1 C17.03 1 14.06 1 11 1 C11 1.66 11 2.32 11 3 C9.35333797 2.8864371 7.70763918 2.75882619 6.0625 2.625 C5.14597656 2.55539063 4.22945313 2.48578125 3.28515625 2.4140625 C2.15400391 2.20910156 2.15400391 2.20910156 1 2 C0.67 1.34 0.34 0.68 0 0 Z " fill="#29B2A8" transform="translate(293,233)"/>
<path d="M0 0 C0.99 0.33 1.98 0.66 3 1 C3 2.32 3 3.64 3 5 C2.34 5 1.68 5 1 5 C0.67 6.65 0.34 8.3 0 10 C-1.65 10.33 -3.3 10.66 -5 11 C-4.34 10.608125 -3.68 10.21625 -3 9.8125 C-0.7240326 8.16800499 -0.7240326 8.16800499 -0.8125 5.5 C-0.9053125 4.2625 -0.9053125 4.2625 -1 3 C-0.67 2.01 -0.34 1.02 0 0 Z " fill="#010101" transform="translate(387,282)"/>
<path d="M0 0 C5.77759884 -0.12036664 11.27959989 0.1679418 17 1 C17 1.33 17 1.66 17 2 C5.47835991 3.51708428 5.47835991 3.51708428 0 1 C0 0.67 0 0.34 0 0 Z " fill="#4C5050" transform="translate(190,210)"/>
<path d="M0 0 C2.16254877 3.24382316 2.21192277 3.46499769 1.5625 7 C1.02117496 10.00862759 0.98868926 10.96606778 2 14 C0.02 14.99 0.02 14.99 -2 16 C-1.85764543 14.27054347 -1.71095618 12.54144346 -1.5625 10.8125 C-1.48128906 9.84957031 -1.40007812 8.88664062 -1.31640625 7.89453125 C-1.02333849 5.21350398 -0.57296246 2.6337014 0 0 Z " fill="#383838" transform="translate(194,272)"/>
<path d="M0 0 C0.33 0 0.66 0 1 0 C2.19937786 6.37259801 2.06475363 10.23826317 -1 16 C-1.33 16 -1.66 16 -2 16 C-2 10.25989387 -1.70287826 5.53435435 0 0 Z " fill="#5B6668" transform="translate(157,276)"/>
<path d="M0 0 C1.485 0.99 1.485 0.99 3 2 C2.67 4.64 2.34 7.28 2 10 C1.34 10 0.68 10 0 10 C-1.125 3.375 -1.125 3.375 0 0 Z " fill="#424244" transform="translate(321,270)"/>
<path d="M0 0 C3.3 0.33 6.6 0.66 10 1 C10 1.33 10 1.66 10 2 C0.58997722 4.29612756 0.58997722 4.29612756 -4 4 C-3.67 3.34 -3.34 2.68 -3 2 C-2.01 2 -1.02 2 0 2 C0 1.34 0 0.68 0 0 Z " fill="#5FAFB0" transform="translate(261,241)"/>
<path d="M0 0 C1.485 0.99 1.485 0.99 3 2 C2.67 4.31 2.34 6.62 2 9 C1.01 9.33 0.02 9.66 -1 10 C-0.67 6.7 -0.34 3.4 0 0 Z " fill="#49494A" transform="translate(326,277)"/>
<path d="M0 0 C0.99 0.33 1.98 0.66 3 1 C3 1.66 3 2.32 3 3 C6.465 2.505 6.465 2.505 10 2 C8.37633534 5.24732932 5.24612161 5.70155136 2 7 C1.814375 6.071875 1.814375 6.071875 1.625 5.125 C1.12802644 2.80879168 1.12802644 2.80879168 -1 1 C-0.67 0.67 -0.34 0.34 0 0 Z " fill="#65C5C0" transform="translate(91,230)"/>
<path d="M0 0 C0.66 0.33 1.32 0.66 2 1 C2 1.33 2 1.66 2 2 C5.3 2 8.6 2 12 2 C9.50494038 4.49505962 8.32671112 4.35948376 4.875 4.625 C3.96492188 4.69976562 3.05484375 4.77453125 2.1171875 4.8515625 C1.06917969 4.92503906 1.06917969 4.92503906 0 5 C-0.5625 3.0625 -0.5625 3.0625 -1 1 C-0.67 0.67 -0.34 0.34 0 0 Z " fill="#46BCB5" transform="translate(94,228)"/>
<path d="M0 0 C0.99 0 1.98 0 3 0 C2.6875 3.375 2.6875 3.375 2 7 C1.01 7.66 0.02 8.32 -1 9 C-1.80967438 6.08517222 -2.21845993 4.53886783 -1.0625 1.6875 C-0.711875 1.130625 -0.36125 0.57375 0 0 Z " fill="#1D1D1D" transform="translate(300,284)"/>
<path d="M0 0 C1.37478516 0.01740234 1.37478516 0.01740234 2.77734375 0.03515625 C3.69644531 0.04417969 4.61554688 0.05320312 5.5625 0.0625 C6.27277344 0.07410156 6.98304688 0.08570313 7.71484375 0.09765625 C7.71484375 0.42765625 7.71484375 0.75765625 7.71484375 1.09765625 C6.62171875 1.20078125 5.52859375 1.30390625 4.40234375 1.41015625 C0.28890545 2.16629809 0.28890545 2.16629809 -2.28515625 5.09765625 C-2.94515625 6.08765625 -3.60515625 7.07765625 -4.28515625 8.09765625 C-3.27234375 0.13984375 -3.27234375 0.13984375 0 0 Z " fill="#636363" transform="translate(232.28515625,258.90234375)"/>
<path d="M0 0 C2.62527189 -0.05382106 5.24944713 -0.09358313 7.875 -0.125 C8.62136719 -0.14175781 9.36773437 -0.15851563 10.13671875 -0.17578125 C12.09194461 -0.1933959 14.04742021 -0.10320189 16 0 C16.66 0.66 17.32 1.32 18 2 C14.25 3.125 14.25 3.125 12 2 C9.9625237 1.77141886 7.91959697 1.58975722 5.875 1.4375 C4.23144531 1.31181641 4.23144531 1.31181641 2.5546875 1.18359375 C1.71164062 1.12300781 0.86859375 1.06242188 0 1 C0 0.67 0 0.34 0 0 Z " fill="#23A69B" transform="translate(341,228)"/>
<path d="M0 0 C0.33 0 0.66 0 1 0 C1 2.31 1 4.62 1 7 C-2.28976808 8.09658936 -3.71303767 7.79953138 -7 7 C-6.67 6.34 -6.34 5.68 -6 5 C-3.4375 4.375 -3.4375 4.375 -1 4 C-0.67 2.68 -0.34 1.36 0 0 Z " fill="#0F0C0F" transform="translate(218,275)"/>
<path d="M0 0 C1.5625 1.625 1.5625 1.625 3 4 C2.6875 7.25 2.6875 7.25 2 10 C1.01 9.67 0.02 9.34 -1 9 C-0.67 6.03 -0.34 3.06 0 0 Z " fill="#383733" transform="translate(227,268)"/>
<path d="M0 0 C-2 3 -2 3 -5 3.8125 C-5.99 3.874375 -6.98 3.93625 -8 4 C-8.66 3.34 -9.32 2.68 -10 2 C-9.34 1.67 -8.68 1.34 -8 1 C-7.34 1.33 -6.68 1.66 -6 2 C-6 1.34 -6 0.68 -6 0 C-2.25 -1.125 -2.25 -1.125 0 0 Z " fill="#73BBBA" transform="translate(282,234)"/>
<path d="M0 0 C0.66 0 1.32 0 2 0 C3.05404945 3.98196457 2.84098656 6.98195309 2 11 C-0.06874624 7.00042393 -1.37656391 4.43559483 0 0 Z " fill="#3D3D3D" transform="translate(339,267)"/>
<path d="M0 0 C-4.22949995 2.41685712 -7.12335991 3.34833144 -12 3 C-11 1 -11 1 -9.2578125 0.33203125 C-8.55398438 0.16058594 -7.85015625 -0.01085937 -7.125 -0.1875 C-6.42632812 -0.36667969 -5.72765625 -0.54585937 -5.0078125 -0.73046875 C-3 -1 -3 -1 0 0 Z " fill="#1AA19D" transform="translate(276,239)"/>
<path d="M0 0 C1.98 0.495 1.98 0.495 4 1 C4 2.32 4 3.64 4 5 C2.35 5 0.7 5 -1 5 C-0.67 3.35 -0.34 1.7 0 0 Z " fill="#2EAAA1" transform="translate(89,232)"/>
<path d="M0 0 C2.4375 0.8125 2.4375 0.8125 5 2 C5.33 2.99 5.66 3.98 6 5 C3.36 4.67 0.72 4.34 -2 4 C-1.34 2.68 -0.68 1.36 0 0 Z " fill="#41413E" transform="translate(346,203)"/>
<path d="M0 0 C0.99 0 1.98 0 3 0 C3 0.66 3 1.32 3 2 C6.96 2 10.92 2 15 2 C15 2.33 15 2.66 15 3 C10.05 3 5.1 3 0 3 C0 2.01 0 1.02 0 0 Z " fill="#32B5AC" transform="translate(125,285)"/>
<path d="M0 0 C0.99 0.33 1.98 0.66 3 1 C2.125 6.75 2.125 6.75 1 9 C0.34 9 -0.32 9 -1 9 C-0.67 6.03 -0.34 3.06 0 0 Z " fill="#373737" transform="translate(328,268)"/>
<path d="M0 0 C-2.93720508 1.52299523 -5.9168649 2.80100302 -9 4 C-9.33 3.01 -9.66 2.02 -10 1 C-6.1496895 -1.56687367 -4.41430237 -0.83288724 0 0 Z " fill="#52BEB7" transform="translate(124,234)"/>
<path d="M0 0 C0.33 1.32 0.66 2.64 1 4 C-0.8125 4.6875 -0.8125 4.6875 -3 5 C-4.75 3.5625 -4.75 3.5625 -6 2 C-3 0 -3 0 0 0 Z " fill="#0B1819" transform="translate(126,212)"/>
<path d="M0 0 C0 2.31 0 4.62 0 7 C-0.99 7 -1.98 7 -3 7 C-3.33 5.35 -3.66 3.7 -4 2 C-1 0 -1 0 0 0 Z " fill="#1A1A1B" transform="translate(220,284)"/>
<path d="M0 0 C0.99 0.33 1.98 0.66 3 1 C2.34 1.66 1.68 2.32 1 3 C1.66 3.66 2.32 4.32 3 5 C0.69 5 -1.62 5 -4 5 C-4 4.34 -4 3.68 -4 3 C-3.34 3 -2.68 3 -2 3 C-2 2.34 -2 1.68 -2 1 C-1.34 0.67 -0.68 0.34 0 0 Z " fill="#495858" transform="translate(120,212)"/>
<path d="M0 0 C0.99 0 1.98 0 3 0 C3.6875 1.8125 3.6875 1.8125 4 4 C2.6875 5.625 2.6875 5.625 1 7 C0.34 7.66 -0.32 8.32 -1 9 C-0.67 6.03 -0.34 3.06 0 0 Z " fill="#555555" transform="translate(291,271)"/>
<path d="M0 0 C2 1 2 1 3 3 C3 3.99 3 4.98 3 6 C1 7.6875 1 7.6875 -1 9 C-0.67 6.03 -0.34 3.06 0 0 Z " fill="#3C3C3C" transform="translate(178,261)"/>
<path d="M0 0 C3.68754757 0.49831724 5.60490662 1.10067643 8 4 C7.01 4.495 7.01 4.495 6 5 C3.96855359 4.06553465 1.96466413 3.06775224 0 2 C0 1.34 0 0.68 0 0 Z " fill="#6BC8C0" transform="translate(374,234)"/>
<path d="M0 0 C1.98 0 3.96 0 6 0 C2.67692308 3.93846154 2.67692308 3.93846154 -0.75 4.25 C-1.4925 4.1675 -2.235 4.085 -3 4 C-2.01 3.67 -1.02 3.34 0 3 C0 2.01 0 1.02 0 0 Z " fill="#0DB1A2" transform="translate(110,223)"/>
<path d="M0 0 C2.31 0 4.62 0 7 0 C6.67 1.32 6.34 2.64 6 4 C4.02 3.01 2.04 2.02 0 1 C0 0.67 0 0.34 0 0 Z " fill="#67C5C2" transform="translate(106,283)"/>
<path d="M0 0 C0.99 0.33 1.98 0.66 3 1 C2.67 2.32 2.34 3.64 2 5 C0.68 5.33 -0.64 5.66 -2 6 C-1.49396008 3.83125748 -1.00016187 2.00032373 0 0 Z " fill="#18B1A1" transform="translate(101,272)"/>
<path d="M0 0 C-0.33 0.66 -0.66 1.32 -1 2 C-3.31 2 -5.62 2 -8 2 C-8 1.34 -8 0.68 -8 0 C-5.13822943 -1.43088528 -3.06624227 -0.59991697 0 0 Z " fill="#3D8785" transform="translate(274,237)"/>
<path d="M0 0 C2.475 0.99 2.475 0.99 5 2 C5 2.66 5 3.32 5 4 C2.69 3.67 0.38 3.34 -2 3 C-1.34 2.67 -0.68 2.34 0 2 C0 1.34 0 0.68 0 0 Z " fill="#5DB7B9" transform="translate(151,232)"/>
<path d="M0 0 C-3.44450737 2.29633824 -5.93812283 2.54016485 -10 3 C-7.7846105 -1.43077901 -4.3377361 -1.20492669 0 0 Z " fill="#6AC4BD" transform="translate(118,226)"/>
<path d="M0 0 C0.33 1.32 0.66 2.64 1 4 C-1.31 4.33 -3.62 4.66 -6 5 C-4.6875 3.5 -4.6875 3.5 -3 2 C-2.01 2 -1.02 2 0 2 C0 1.34 0 0.68 0 0 Z " fill="#3D3D3D" transform="translate(251,288)"/>
<path d="M0 0 C0.99 0 1.98 0 3 0 C3 0.99 3 1.98 3 3 C1.02 3.66 -0.96 4.32 -3 5 C-1.6875 2.5 -1.6875 2.5 0 0 Z " fill="#3D3D3D" transform="translate(208,188)"/>
</svg>
